PathFileType	4	(X/Y/Z)	s07c0402.trc
DataRate	CameraRate	NumFrames	NumMarkers	Units	OrigDataRate	OrigDataStartFrame	OrigNumFrames
200	200	4	48	mm	200	1750	2000
Frame#	Time	racr			lacr			c7			jug			rlel			rdr			llel			ldr			s2			lic			ric			lasi			rasi			rpsi			lpsi			rgt			lgt			rth1			rth2			rth3			rth4			rlfc			rmfc			rsh1			rsh2			rsh3			rsh4			rlmal			rcal			rtoe			rmt5			lth1			lth2			lth4			lth3			llfc			lmfc			lsh1			lsh2			lsh3			lsh4			llmal			lcal			ltoe			lmt5			SBIKE			LBIKE			RBIKE			
		X1	Y1	Z1	X2	Y2	Z2	X3	Y3	Z3	X4	Y4	Z4	X5	Y5	Z5	X6	Y6	Z6	X7	Y7	Z7	X8	Y8	Z8	X9	Y9	Z9	X10	Y10	Z10	X11	Y11	Z11	X12	Y12	Z12	X13	Y13	Z13	X14	Y14	Z14	X15	Y15	Z15	X16	Y16	Z16	X17	Y17	Z17	X18	Y18	Z18	X19	Y19	Z19	X20	Y20	Z20	X21	Y21	Z21	X22	Y22	Z22	X23	Y23	Z23	X24	Y24	Z24	X25	Y25	Z25	X26	Y26	Z26	X27	Y27	Z27	X28	Y28	Z28	X29	Y29	Z29	X30	Y30	Z30	X31	Y31	Z31	X32	Y32	Z32	X33	Y33	Z33	X34	Y34	Z34	X35	Y35	Z35	X36	Y36	Z36	X37	Y37	Z37	X38	Y38	Z38	X39	Y39	Z39	X40	Y40	Z40	X41	Y41	Z41	X42	Y42	Z42	X43	Y43	Z43	X44	Y44	Z44	X45	Y45	Z45	X46	Y46	Z46	X47	Y47	Z47	X48	Y48	Z48	
1750	8.7500	495.191832	1432.717458	-109.421812	475.286166	1434.848330	-391.099621	450.424951	1469.249234	-252.182014	421.667455	1328.032405	-250.881996	461.343176	1108.490087	38.011833	683.890536	935.963854	-63.996073	461.733179	1116.975856	-533.355843	685.083641	928.303586	-457.275116	-122.028176	1226.775109	-232.085085	37.664084	1273.905570	-379.273786	61.253416	1256.073198	-88.420391	62.600988	1195.087726	-360.026295	68.830823	1201.868865	-107.919638	-89.013120	1262.994348	-181.257126	-80.955166	1275.899484	-287.616049	-3.567405	1132.428158	-46.717439	-29.711093	1120.481616	-411.210551	127.716721	1046.161867	-50.413634	206.400340	1009.661037	-64.387988	258.717424	942.299050	-66.049288	225.423643	1036.368704	-82.588736	352.784288	838.772208	-102.460655	341.146874	822.931775	-205.630857	311.099017	701.158447	-74.914278	304.409332	613.393432	-94.512229	260.802506	538.733259	-86.852574	317.644152	612.583979	-132.721951	213.909666	407.171798	-85.737916	149.918237	356.381655	-112.715236	439.565881	380.478005	-130.041010	370.166158	335.781915	-58.916212	37.567069	1015.469981	-419.850198	109.875935	965.579290	-426.842111	137.996772	988.796359	-421.772330	148.903413	885.185813	-423.551815	247.018624	736.091946	-395.080060	239.852063	721.384561	-298.617758	145.246118	625.770240	-412.423634	101.522263	555.534811	-390.117258	24.221444	508.334908	-397.055171	105.447898	558.453983	-348.444482	-77.126517	421.305543	-395.128295	-158.241404	405.662595	-361.185535	112.628639	302.114370	-360.979201	27.829305	302.789316	-424.682734	-263.597508	969.414477	-237.594161	-83.226927	79.119248	-437.473596	-83.159121	79.102980	-39.864359	
1751	8.7550	492.240033	1433.181390	-110.073031	471.844816	1434.897436	-391.193726	446.798844	1469.430373	-252.439124	418.391698	1328.145573	-251.051626	461.574963	1109.042686	38.120153	683.715320	935.917259	-64.205645	461.747879	1117.158714	-533.563232	684.999688	928.215992	-457.190710	-124.760398	1224.848840	-232.145912	34.582910	1273.068473	-379.365080	58.201768	1254.798341	-88.318416	60.280402	1194.113166	-360.545116	66.125335	1200.680899	-107.783453	-91.974290	1261.165075	-181.249862	-83.777974	1274.189746	-287.679099	-5.978263	1130.573164	-46.986822	-32.766574	1118.920641	-412.105864	125.497627	1044.639091	-50.481592	204.220710	1008.075524	-64.339486	256.581829	940.694965	-65.996531	223.256693	1034.863496	-82.365335	350.840622	837.618688	-102.316116	339.411520	821.710452	-205.576986	309.915158	699.600000	-74.984939	303.639513	611.939120	-94.448027	260.366695	537.027420	-86.800596	316.820089	611.356760	-132.653502	214.010262	405.331064	-85.653228	150.077323	354.496150	-112.722093	440.775502	377.840588	-129.343313	370.268660	334.007815	-58.894043	36.434674	1014.644991	-419.933194	109.145742	965.373527	-426.825204	137.079500	988.798874	-421.667560	148.891799	885.302786	-423.384357	248.034112	737.039386	-394.599830	240.604265	722.430167	-297.934399	146.039254	627.073295	-412.032286	102.068240	556.953836	-389.792609	24.610714	509.844152	-396.662605	105.968851	559.843758	-348.127349	-76.929822	423.507334	-395.380217	-158.165011	407.762792	-361.142158	112.501151	303.736749	-360.951503	27.739339	304.596841	-424.646216	-263.667734	969.380339	-237.523027	-83.236857	79.119396	-437.467199	-83.171222	79.090721	-39.862009	
1752	8.7600	489.391354	1433.424674	-110.475197	468.349826	1434.887674	-391.229877	443.134667	1469.656787	-252.831585	415.234471	1328.157170	-251.063730	461.805159	1109.581673	38.283129	683.528700	935.855257	-64.460460	461.617664	1117.227193	-533.478216	684.934396	928.141497	-457.072051	-127.484448	1222.880797	-232.270303	31.498153	1272.224186	-379.528306	55.334142	1253.463052	-88.144140	57.745447	1193.216582	-360.615980	63.540537	1199.226326	-107.842673	-94.840535	1259.225192	-181.341432	-86.729254	1272.508310	-287.743907	-8.441949	1128.640888	-47.366833	-34.830662	1117.481464	-412.395014	123.262199	1042.626676	-50.526740	202.035659	1006.171129	-64.197005	254.374491	938.881062	-65.978181	221.162535	1033.105607	-82.056345	348.784864	836.262652	-102.068271	337.550449	820.420110	-205.363573	308.577736	697.991958	-74.967601	302.756864	610.426747	-94.367154	259.905746	535.207407	-86.722042	315.871915	609.863044	-132.531973	214.049258	403.353746	-85.597699	150.222804	352.484512	-112.714036	440.538719	376.457388	-129.278474	370.308790	332.240249	-58.883709	35.369614	1013.774279	-420.120462	108.522902	965.179421	-426.790031	136.248634	988.867978	-421.641961	148.969130	885.486121	-423.276211	249.113295	738.039138	-394.106909	241.605811	723.552722	-297.325744	146.949182	628.353915	-411.565323	102.698879	558.433676	-389.489904	25.131363	511.631243	-396.457350	106.574097	561.305990	-347.833765	-76.671941	425.589670	-395.276674	-157.989235	409.996027	-361.106654	112.415511	305.366713	-360.903726	27.651540	306.439330	-424.607613	-263.782265	969.351129	-237.477809	-83.243209	79.125831	-437.482049	-83.172044	79.108362	-39.857227	
1753	8.7650	486.416962	1433.933720	-111.180351	464.894090	1434.922262	-391.347427	439.603737	1469.906469	-253.143390	412.040115	1328.329681	-251.207340	462.096488	1110.082134	38.389996	683.347957	935.751701	-64.738548	461.543197	1117.314434	-533.348139	684.909847	928.073183	-456.951870	-130.139582	1220.862118	-232.441024	28.490447	1271.463944	-379.697582	52.368011	1251.993530	-88.148081	55.302549	1192.531752	-360.970733	60.923332	1197.813163	-107.752885	-97.728356	1257.294641	-181.366670	-89.684392	1270.832963	-287.773668	-10.687641	1126.598478	-47.834901	-36.864238	1116.138445	-412.711844	121.065769	1040.527093	-50.572818	199.804163	1004.114249	-64.026095	252.119708	936.749811	-65.931927	219.277337	1032.008039	-80.281391	346.742718	834.708961	-101.804357	335.735311	818.936152	-205.181886	307.223353	696.364210	-74.772889	301.846499	608.749036	-94.169895	259.386788	533.346735	-86.589515	314.857321	608.341533	-132.382339	213.983605	401.350274	-85.490376	150.293843	350.310476	-112.664728	440.774383	374.510336	-129.305825	368.661559	331.285270	-58.837224	34.313915	1012.918355	-420.336426	107.981735	965.014977	-426.803756	135.469488	988.914585	-421.589498	149.152881	885.677538	-423.195930	250.408630	739.071429	-393.619331	242.638731	724.771916	-296.696867	147.977555	629.664694	-411.176774	103.414786	559.980746	-389.214741	25.754909	513.456061	-396.355010	107.265116	562.846010	-347.567717	-76.366155	427.692280	-395.196596	-157.794350	412.368300	-361.052941	112.363832	307.019939	-360.885827	27.625146	308.341506	-424.584832	-263.864383	969.232611	-237.348712	-83.237054	79.120594	-437.478623	-83.172504	79.086598	-39.858443	
